<svg xmlns="http://www.w3.org/2000/svg" width="116.255" height="57.584" viewBox="0 0 116.255 57.584">
  <g id="Group_101" data-name="Group 101" transform="translate(-429.745 -2422.419)">
    <path id="Icon_map-boating" data-name="Icon map-boating" d="M0,43.4a9.086,9.086,0,0,0,3.751-.831,8.865,8.865,0,0,1,7.7,0,8.841,8.841,0,0,0,7.483,0,8.862,8.862,0,0,1,7.7,0,9.064,9.064,0,0,0,3.752.831,8.923,8.923,0,0,0,3.735-.831,8.859,8.859,0,0,1,7.694,0,9.028,9.028,0,0,0,3.748.831,8.888,8.888,0,0,0,3.727-.831,9.054,9.054,0,0,1,3.856-.879,7.486,7.486,0,0,1,3.486.879,7.4,7.4,0,0,0,3.365.831V37.693a7.4,7.4,0,0,1-3.365-.831A8.433,8.433,0,0,0,52.955,36a8.846,8.846,0,0,0-3.764.865,8.7,8.7,0,0,1-3.682.831,8.931,8.931,0,0,1-3.726-.831,8.951,8.951,0,0,0-7.676,0,8.925,8.925,0,0,1-3.731.831,9.048,9.048,0,0,1-3.749-.831,8.991,8.991,0,0,0-7.694,0,8.841,8.841,0,0,1-7.483,0A9.216,9.216,0,0,0,7.592,36a9.183,9.183,0,0,0-3.839.865A9.107,9.107,0,0,1,0,37.693V43.4ZM15.274,19.555l-11.041.878.833-5.742,8.105-.583c2.191-.108,1.875,2.124,1.875,2.124l.227,3.323Zm20.474-1.308A3.724,3.724,0,1,1,39.4,14.524,3.685,3.685,0,0,1,35.748,18.247ZM58.341,32.6a9.293,9.293,0,0,1-1.346-.523,8.911,8.911,0,0,0-7.713,0,8.887,8.887,0,0,1-3.727.831,9.018,9.018,0,0,1-3.749-.831,8.871,8.871,0,0,0-7.694,0,8.923,8.923,0,0,1-3.735.831,9.034,9.034,0,0,1-3.751-.831,8.874,8.874,0,0,0-7.7,0,8.841,8.841,0,0,1-7.483,0,8.876,8.876,0,0,0-7.7,0,8.924,8.924,0,0,1-3.736.831L1.255,22.726l45.89-3.91-6.926-7.11,3.04-.276,6.917,7.126,15.03-1.262c.091,5.217-5.623,13.89-6.865,15.307Z" transform="translate(480.793 2435.601)" fill="#fff"/>
    <path id="Icon_awesome-hotel" data-name="Icon awesome-hotel" d="M60.8,6.948a1.737,1.737,0,0,0,1.737-1.737V1.737A1.737,1.737,0,0,0,60.8,0H1.737A1.737,1.737,0,0,0,0,1.737V5.211A1.737,1.737,0,0,0,1.737,6.948H3.472V48.636H1.737A1.737,1.737,0,0,0,0,50.373v3.474a1.737,1.737,0,0,0,1.737,1.737H27.792V46.9a1.742,1.742,0,0,1,1.737-1.737H33A1.742,1.742,0,0,1,34.74,46.9v8.685H60.8a1.737,1.737,0,0,0,1.737-1.737V50.373A1.737,1.737,0,0,0,60.8,48.636H59.059V6.948Zm-33,4.864a1.494,1.494,0,0,1,1.39-1.39h4.169a1.494,1.494,0,0,1,1.39,1.39v4.169a1.494,1.494,0,0,1-1.39,1.39H29.182a1.494,1.494,0,0,1-1.39-1.39V11.812Zm0,10.422a1.494,1.494,0,0,1,1.39-1.39h4.169a1.494,1.494,0,0,1,1.39,1.39V26.4a1.494,1.494,0,0,1-1.39,1.39H29.182a1.494,1.494,0,0,1-1.39-1.39ZM13.9,11.812a1.494,1.494,0,0,1,1.39-1.39h4.169a1.494,1.494,0,0,1,1.39,1.39v4.169a1.494,1.494,0,0,1-1.39,1.39H15.286a1.494,1.494,0,0,1-1.39-1.39Zm5.558,15.981H15.286A1.494,1.494,0,0,1,13.9,26.4V22.234a1.494,1.494,0,0,1,1.39-1.39h4.169a1.494,1.494,0,0,1,1.39,1.39V26.4A1.494,1.494,0,0,1,19.455,27.792Zm1.39,13.9a10.422,10.422,0,0,1,20.844,0ZM48.636,26.4a1.494,1.494,0,0,1-1.39,1.39H43.078a1.494,1.494,0,0,1-1.39-1.39V22.234a1.494,1.494,0,0,1,1.39-1.39h4.169a1.494,1.494,0,0,1,1.39,1.39Zm0-10.422a1.494,1.494,0,0,1-1.39,1.39H43.078a1.494,1.494,0,0,1-1.39-1.39V11.812a1.494,1.494,0,0,1,1.39-1.39h4.169a1.494,1.494,0,0,1,1.39,1.39Z" transform="translate(430.745 2423.419)" fill="none" stroke="#fff" stroke-width="2"/>
  </g>
</svg>
