<svg xmlns="http://www.w3.org/2000/svg" width="113.286" height="94.591" viewBox="0 0 113.286 94.591">
  <g id="parking-4180614" transform="translate(-89.598 -62.536)">
    <path id="Path_146" data-name="Path 146" d="M177.319,368.6a2.107,2.107,0,0,0-.39-.6,2.407,2.407,0,0,0-.28-.219,1.582,1.582,0,0,0-.317-.17,1.2,1.2,0,0,0-.342-.1,1.877,1.877,0,0,0-1.656.487,2.108,2.108,0,0,0-.39.6,1.215,1.215,0,0,0-.1.341,1.874,1.874,0,0,0,0,.365,1.816,1.816,0,0,0,1.828,1.828h.353a1.905,1.905,0,0,0,.342-.11,2.1,2.1,0,0,0,.6-.39,1.826,1.826,0,0,0,.5-1.657,1.865,1.865,0,0,0-.146-.377Z" transform="translate(-65.916 -238.609)"/>
    <path id="Path_147" data-name="Path 147" d="M325.141,368.667a1.585,1.585,0,0,0-.171-.317,1.7,1.7,0,0,0-.231-.28,1.914,1.914,0,0,0-2.583,0,2.125,2.125,0,0,0-.389.6,1.825,1.825,0,1,0,3.471.341,1.213,1.213,0,0,0-.1-.341Z" transform="translate(-181.555 -238.68)"/>
    <path id="Path_148" data-name="Path 148" d="M116.631,245.012h3.045l-.828,3.435h-1.34a1.827,1.827,0,0,0-1.827,1.827v20.6a1.827,1.827,0,0,0,1.827,1.828h4.056v3.107h0a5.08,5.08,0,0,0,5.08,5.08h1.682a5.08,5.08,0,0,0,5.08-5.08V272.7H157.66v3.106h0a5.08,5.08,0,0,0,5.08,5.08h1.681a5.08,5.08,0,0,0,5.08-5.08V272.7h4.056a1.828,1.828,0,0,0,1.828-1.828v-20.6a1.827,1.827,0,0,0-1.828-1.827h-1.376l-.828-3.435h3.143a1.827,1.827,0,1,0,0-3.655h-4.02l-2.753-11.378a1.815,1.815,0,0,0-1.754-1.45H125.123a1.815,1.815,0,0,0-1.79,1.45l-2.753,11.426h-3.947a1.827,1.827,0,0,0,0,3.655Zm13.119,30.8a1.438,1.438,0,0,1-1.425,1.426h-1.682a1.425,1.425,0,0,1-1.425-1.426V272.7h4.531Zm36.094,0a1.426,1.426,0,0,1-1.426,1.426h-1.681a1.438,1.438,0,0,1-1.425-1.426V272.7h4.531Zm5.883-6.76h-52.38V252.1h52.38Zm-18.37-20.6a3.031,3.031,0,0,0,0-.329,3.106,3.106,0,1,1,6.2,0,1.519,1.519,0,0,0,0,.329Zm-26.8-16.263H164.5l3.9,16.263h-5.189a1.519,1.519,0,0,0,0-.329,6.761,6.761,0,1,0-13.51,0,3.015,3.015,0,0,0,0,.329H122.637Z" transform="translate(-19.724 -129.886)"/>
    <path id="Path_149" data-name="Path 149" d="M482.53,126.78a6.675,6.675,0,0,0-6.664-6.664h-4.873a1.827,1.827,0,0,0-1.827,1.827v19.345a1.827,1.827,0,0,0,3.655,0v-7.845h3.009a6.662,6.662,0,0,0,6.7-6.663Zm-9.672-3.009h3.009a3.009,3.009,0,0,1,0,6.018h-3.009Z" transform="translate(-297.003 -45.055)"/>
    <path id="Path_150" data-name="Path 150" d="M201.058,153.473H180.691V110.486a24.008,24.008,0,1,0-3.655,0v42.987H91.425a1.827,1.827,0,0,0,0,3.654H201.057a1.827,1.827,0,1,0,0-3.654ZM158.508,86.56a20.381,20.381,0,1,1,5.965,14.394,20.365,20.365,0,0,1-5.965-14.394Z" transform="translate(0)"/>
  </g>
</svg>
