<svg xmlns="http://www.w3.org/2000/svg" width="126.682" height="90.987" viewBox="0 0 126.682 90.987">
  <g id="dog-allow-4216353" transform="translate(0.052 -35.731)">
    <path id="Path_143" data-name="Path 143" d="M126.278,170.069c-1.027-1.043-3.431-.347-4.733-.649a2.124,2.124,0,0,1-.713-.291,3.8,3.8,0,0,1-1.176-1.988c-.387-1.007-.79-1.209-1.835-1.523h0a11.851,11.851,0,0,0-2.852-.453,14.425,14.425,0,0,0-1.126-2.358c-.242-.407-.626-.855-1.089-.758-.387.081-.581.494-.734.855a29.339,29.339,0,0,1-1.91,3.625c-.112.163-.221.325-.327.492h.04a28.2,28.2,0,0,0-1.937,3.718,18.344,18.344,0,0,1-1.312,2.866,101.169,101.169,0,0,1-32.329-7.095h0a73.049,73.049,0,0,1-8.424-4.069,3.872,3.872,0,0,0-.238-1.6l-9.635-25.972a3.929,3.929,0,0,0-3.681-2.562H34.737a3.931,3.931,0,0,0-3.64,2.447l-4.332,10.637a22.217,22.217,0,1,0,5.8,41.367l-.108,15.1a3.931,3.931,0,0,0,3.9,3.958h.029a3.93,3.93,0,0,0,3.929-3.9l.161-22.216h0A22.03,22.03,0,0,0,43.9,171.76h1.585l-.225,30.1a3.931,3.931,0,0,0,3.906,3.958H49.2a3.933,3.933,0,0,0,3.929-3.9l.217-30.152h.05V150.572l4.822,12.993a3.929,3.929,0,0,0,6.51,1.356,76.487,76.487,0,0,0,8.38,4.04,102.617,102.617,0,0,0,30.067,7.1c-.318.1-.641.182-.968.259a55,55,0,0,1-11.6,1.007,27.823,27.823,0,0,0-6.182.126c-2.518.515-4.733,1.982-7.05,3.112a11.536,11.536,0,0,1-9.084.657c-1.587-.628-2.342-1.55-3.875-2.294-1-.479-2.784-.7-3.1.705-.225.992,1.058,2.131,1.718,2.712a9.263,9.263,0,0,0,4.743,2.294,11.413,11.413,0,0,0,3.187.324c2.042,0,7.122-.556,7.581-.581a41.986,41.986,0,0,1-.707,9.428c-.775,3.435-2.4,7.107-.9,10.29.306.011.8.087,1.356.161h0a.36.36,0,0,0,.068,0h4.107c.476,0,.614-1.44.531-1.8a1.818,1.818,0,0,0-1.657-1.37h-.435a1.985,1.985,0,0,1-.233-.2A1.86,1.86,0,0,1,81,198.4a8.352,8.352,0,0,1,2.435-1.325,10.268,10.268,0,0,0,4.73-4.486,1.454,1.454,0,0,1,.633-.752h0a1.407,1.407,0,0,1,.618-.052c4.638.343,12.035-.87,17.009-1.621a63.538,63.538,0,0,0,.05,10.125c.056.744.118,1.488.206,2.23.023.209.042.43.079.651a2.164,2.164,0,0,0,.409,1.1h6.975c.194,0,.348-.194.463-.484h0a4.171,4.171,0,0,0,.209-1.8,2.307,2.307,0,0,0-2.1-1.73,4.44,4.44,0,0,1-.664-.025,1.47,1.47,0,0,1-.867-.523,5.662,5.662,0,0,1,.194-1.8c.87-3.718,2.68-7.114,4.069-10.656a25.906,25.906,0,0,0,1.573-5.457,4.838,4.838,0,0,0,.05-.562l-11.6-4.944.011-.029.968-2.288,2.858,1.219,7.855,3.35a2.456,2.456,0,0,1,.839-1.631,2.723,2.723,0,0,1,1.011-.436,9.279,9.279,0,0,1,1.55-.259c.594-.047,1.192-.035,1.786-.1.988-.107,2.856-.387,3.549-1.187s.7-2.476.722-3.487a1.861,1.861,0,0,0-.352-1.353ZM32.6,182.45a18.539,18.539,0,1,1,.031-30.611.319.319,0,0,1,.045.031,18.518,18.518,0,0,1-.076,30.58Z" transform="translate(0 -79.103)"/>
    <path id="Path_144" data-name="Path 144" d="M211.626,43.223a7.492,7.492,0,1,1-7.493-7.492,7.493,7.493,0,0,1,7.493,7.492" transform="translate(-161.102)"/>
    <path id="Path_145" data-name="Path 145" d="M74.4,271.459a2.236,2.236,0,0,0-.428.405l-2.311,2.824-2.116,2.583-1.506,1.841-5.82,7.11-6.509-6.3-.878-.849h0a2.325,2.325,0,1,0-3.234,3.342l9.2,8.9a2.325,2.325,0,0,0,1.616.655h.136a2.327,2.327,0,0,0,1.665-.848L74.4,278.676l3.17-3.875a2.325,2.325,0,0,0-3.17-3.342Z" transform="translate(-41.72 -192.716)"/>
  </g>
</svg>
