<svg id="online-reservation-3544945" xmlns="http://www.w3.org/2000/svg" width="110.61" height="82.748" viewBox="0 0 110.61 82.748">
  <path id="Path_136" data-name="Path 136" d="M202.917,155.875a2.4,2.4,0,0,0-2.269-1.606H197.3V99.543a11.474,11.474,0,0,0-11.457-11.457H111.719a11.474,11.474,0,0,0-11.457,11.457V154.27H96.918a2.412,2.412,0,0,0-2.269,1.593c-.278.785-2.668,7.763.314,12a7.351,7.351,0,0,0,6.41,2.97H196.2c3.573,0,5.457-1.618,6.4-2.97,2.982-4.237.6-11.215.314-11.988ZM105.091,99.543a6.631,6.631,0,0,1,6.628-6.628h74.127a6.631,6.631,0,0,1,6.628,6.628v54.726H105.092ZM135.43,166H101.374c-1.823,0-2.306-.688-2.463-.918-.918-1.3-.64-4.009-.181-5.988h36.7Zm63.225-.917c-.181.253-.64.918-2.451.918H162.136V159.1h36.7c.446,1.968.737,4.684-.181,5.988Z" transform="translate(-93.48 -88.086)"/>
  <path id="Path_137" data-name="Path 137" d="M473.225,134.861h8.606a2.414,2.414,0,0,0,0-4.829h-8.606a2.414,2.414,0,1,0,0,4.829Z" transform="translate(-389.464 -120.989)"/>
  <path id="Path_138" data-name="Path 138" d="M408.285,201.861h7a2.414,2.414,0,1,0,0-4.829h-7a2.414,2.414,0,1,0,0,4.829Z" transform="translate(-338.524 -173.545)"/>
  <path id="Path_139" data-name="Path 139" d="M408.285,240.961h19.86a2.414,2.414,0,0,0,0-4.829h-19.86a2.414,2.414,0,0,0,0,4.829Z" transform="translate(-338.524 -204.215)"/>
  <path id="Path_140" data-name="Path 140" d="M408.285,280.061h19.86a2.414,2.414,0,1,0,0-4.829h-19.86a2.414,2.414,0,1,0,0,4.829Z" transform="translate(-338.524 -234.886)"/>
  <path id="Path_141" data-name="Path 141" d="M408.285,319.161h19.86a2.414,2.414,0,1,0,0-4.829h-19.86a2.414,2.414,0,1,0,0,4.829Z" transform="translate(-338.524 -265.557)"/>
  <path id="Path_142" data-name="Path 142" d="M204.478,157.92a21.537,21.537,0,1,0,21.537,21.537A21.555,21.555,0,0,0,204.478,157.92ZM216.1,174.278l-15.477,15.478-7.763-7.763a2.412,2.412,0,1,1,3.4-3.417l4.358,4.346L212.7,170.862a2.411,2.411,0,1,1,3.4,3.417Z" transform="translate(-163.663 -142.865)"/>
</svg>
