<svg xmlns="http://www.w3.org/2000/svg" width="99.178" height="62.103" viewBox="0 0 99.178 62.103">
  <g id="gift-card-5260304" transform="translate(-78.277 -109.553)">
    <path id="Path_175" data-name="Path 175" d="M167.669,171.663H87.089a9.309,9.309,0,0,1-9.3-9.3v-43.5a9.309,9.309,0,0,1,9.3-9.3h80.58a9.309,9.309,0,0,1,9.3,9.3v43.512a9.307,9.307,0,0,1-9.3,9.292Zm-80.58-59a6.208,6.208,0,0,0-6.2,6.2V162.37a6.208,6.208,0,0,0,6.2,6.2h80.58a6.208,6.208,0,0,0,6.2-6.2V118.858a6.208,6.208,0,0,0-6.2-6.2Z" transform="translate(0.486 -0.007)"/>
    <path id="Path_176" data-name="Path 176" d="M247.125,213.96h-3.906a4.092,4.092,0,0,1-4.087-4.087V199.381a4.092,4.092,0,0,1,4.087-4.087h3.907a4.092,4.092,0,0,1,4.087,4.087v10.486A4.1,4.1,0,0,1,247.125,213.96Zm-3.906-15.567a.988.988,0,0,0-.988.988v10.486a.988.988,0,0,0,.988.988h3.906a.988.988,0,0,0,.988-.988V199.381a.988.988,0,0,0-.988-.988Z" transform="translate(-131.462 -70.121)"/>
    <path id="Path_177" data-name="Path 177" d="M143.25,204.728a8.634,8.634,0,0,1-5.508-1.8,10.129,10.129,0,0,1-3.235-6.115,21.388,21.388,0,0,1,.006-8.278,10.681,10.681,0,0,1,2.422-5.3,7.385,7.385,0,0,1,4.158-2.324,9.931,9.931,0,0,1,4.4.284,26.258,26.258,0,0,1,7.355,3.687c1.052.7,2.027,1.427,2.912,2.143a1.551,1.551,0,1,1-1.963,2.4c-.807-.658-1.7-1.317-2.673-1.969a24.177,24.177,0,0,0-6.45-3.273c-2.4-.652-4.139-.29-5.469,1.149a7.721,7.721,0,0,0-1.659,3.8,18.191,18.191,0,0,0-.006,7.063,7.209,7.209,0,0,0,2.157,4.313,5.975,5.975,0,0,0,4.261,1.072,16.132,16.132,0,0,0,5.366-1.5,20.715,20.715,0,0,0,4.5-2.873,1.55,1.55,0,0,1,1.982,2.382,24.025,24.025,0,0,1-5.172,3.3,19.092,19.092,0,0,1-6.412,1.782,8.145,8.145,0,0,1-.975.052Z" transform="translate(-45.57 -58.248)"/>
    <path id="Path_178" data-name="Path 178" d="M301.35,204.784c-.323,0-.652-.013-.981-.046a18.888,18.888,0,0,1-5.8-1.5,23.722,23.722,0,0,1-5.779-3.571,1.55,1.55,0,0,1,1.983-2.382,20.951,20.951,0,0,0,5.023,3.106,15.648,15.648,0,0,0,4.836,1.265,5.973,5.973,0,0,0,4.261-1.072,7.228,7.228,0,0,0,2.157-4.313,18.316,18.316,0,0,0-.006-7.063,7.714,7.714,0,0,0-1.659-3.8c-1.33-1.44-3.067-1.808-5.469-1.149a23.964,23.964,0,0,0-6.45,3.273c-.962.645-1.859,1.3-2.673,1.969a1.551,1.551,0,1,1-1.963-2.4c.885-.723,1.866-1.446,2.912-2.143a26.406,26.406,0,0,1,7.355-3.687,9.93,9.93,0,0,1,4.4-.284,7.405,7.405,0,0,1,4.158,2.324,10.61,10.61,0,0,1,2.422,5.3,21.388,21.388,0,0,1,.006,8.278,10.182,10.182,0,0,1-3.235,6.115,8.652,8.652,0,0,1-5.5,1.789Z" transform="translate(-171.618 -58.304)"/>
    <path id="Path_179" data-name="Path 179" d="M274.856,301.371a1.545,1.545,0,0,1-1.369-.826l-9.291-17.53a1.548,1.548,0,1,1,2.738-1.447l7.361,13.888.781-3.313a1.545,1.545,0,0,1,1.834-1.156l4.132.885-4.275-6.592a1.55,1.55,0,1,1,2.6-1.685l6.315,9.731a1.554,1.554,0,0,1-1.627,2.363l-6.315-1.349-1.382,5.843a1.557,1.557,0,0,1-1.311,1.181c-.064,0-.129.006-.194.006Z" transform="translate(-151.814 -140.003)"/>
    <path id="Path_180" data-name="Path 180" d="M171.3,301.318c-.065,0-.129-.006-.2-.013a1.557,1.557,0,0,1-1.311-1.181l-1.382-5.843L162.1,295.63a1.554,1.554,0,0,1-1.627-2.363l6.315-9.737a1.55,1.55,0,0,1,2.6,1.685l-4.275,6.593,4.132-.885a1.55,1.55,0,0,1,1.834,1.156l.781,3.313L179.22,281.5a1.548,1.548,0,0,1,2.738,1.447l-9.292,17.53a1.525,1.525,0,0,1-1.362.839Z" transform="translate(-66.928 -139.949)"/>
    <path id="Path_181" data-name="Path 181" d="M429.347,208.454H389.832a1.55,1.55,0,1,1,0-3.1h39.515a1.55,1.55,0,1,1,0,3.1Z" transform="translate(-253.442 -78.349)"/>
    <path id="Path_182" data-name="Path 182" d="M90.541,208.454h-11.2a1.55,1.55,0,1,1,0-3.1h11.2a1.55,1.55,0,1,1,0,3.1Z" transform="translate(0.483 -78.349)"/>
    <path id="Path_183" data-name="Path 183" d="M90.6,273.744H79.345a1.55,1.55,0,1,1,0-3.1H90.6a1.55,1.55,0,1,1,0,3.1Z" transform="translate(0.482 -131.745)"/>
    <path id="Path_184" data-name="Path 184" d="M429.11,273.744H389.542a1.55,1.55,0,0,1,0-3.1H429.11a1.55,1.55,0,1,1,0,3.1Z" transform="translate(-253.205 -131.745)"/>
    <path id="Path_185" data-name="Path 185" d="M299.162,130.106a1.546,1.546,0,0,1-1.55-1.55V111.1a1.55,1.55,0,1,1,3.1,0v17.459A1.549,1.549,0,0,1,299.162,130.106Z" transform="translate(-179.29 0)"/>
    <path id="Path_186" data-name="Path 186" d="M299.162,363.2a1.546,1.546,0,0,1-1.55-1.55V345.312a1.55,1.55,0,0,1,3.1,0v16.336A1.55,1.55,0,0,1,299.162,363.2Z" transform="translate(-179.29 -191.542)"/>
    <path id="Path_187" data-name="Path 187" d="M233.882,130.106a1.546,1.546,0,0,1-1.55-1.55V111.1a1.55,1.55,0,1,1,3.1,0v17.459A1.549,1.549,0,0,1,233.882,130.106Z" transform="translate(-125.902 0)"/>
    <path id="Path_188" data-name="Path 188" d="M233.882,359.489a1.546,1.546,0,0,1-1.55-1.55V340.777a1.55,1.55,0,0,1,3.1,0v17.162A1.551,1.551,0,0,1,233.882,359.489Z" transform="translate(-125.902 -187.834)"/>
  </g>
</svg>
