<svg xmlns="http://www.w3.org/2000/svg" width="99.552" height="97.517" viewBox="0 0 99.552 97.517">
  <g id="car-rental-3817811" transform="translate(-63.443 0.005)">
    <path id="Path_174" data-name="Path 174" d="M112.891,26.66H91.1c-1.681,0-4.511,2.231-5.641,5.113,0,0-4.1,9.393-5.879,15a10.2,10.2,0,0,0-.144,1.565c0,5.217,68.468,5.211,68.468,0,0-.119,0-.244-.011-.368a23.7,23.7,0,0,1-10.611,2.5c-13.03,0-23.679-10.534-24.4-23.806Zm.252-5.333C114.96,9.243,125.077-.005,137.287-.005c13.494,0,24.435,11.3,24.435,25.234a25.5,25.5,0,0,1-9.159,19.7l.341.871a4.035,4.035,0,0,1,.49-.056h4.741c2.68,0,4.859,2.469,4.859,5.527s-2.179,5.527-4.859,5.527h-1.19c0,.009,0,.013,0,.022a19.245,19.245,0,0,1,1.008,6.178V69.47c0,6.332-1.543,11.8-5.033,14.461v7.114c0,3.572-2.551,6.467-5.688,6.467h-5.215c-3.137,0-5.686-2.9-5.686-6.467v-5.4H90.116v5.4c0,3.572-2.55,6.467-5.688,6.467h-5.22c-3.138,0-5.688-2.9-5.688-6.467V83.931c-3.485-2.662-5.028-8.124-5.028-14.461V62.994a19.377,19.377,0,0,1,1-6.169c0-.009.006-.018.006-.031H68.3c-2.684,0-4.859-2.475-4.859-5.522s2.175-5.532,4.859-5.532h4.738a4.617,4.617,0,0,1,.495.056l6.171-15.747c1.95-4.974,6.652-8.725,10.936-8.725ZM93.664,71.106a7.111,7.111,0,1,0-7.113,7.107A7.118,7.118,0,0,0,93.664,71.106Zm55.11,0a7.111,7.111,0,1,0-7.11,7.107A7.115,7.115,0,0,0,148.773,71.106ZM137.288,48.17c12.268,0,22.213-10.271,22.213-22.941S149.556,2.288,137.288,2.288s-22.213,10.271-22.213,22.941S125.02,48.17,137.288,48.17Zm9.187-18.73a6.132,6.132,0,0,1-1.758,4.377,8.625,8.625,0,0,1-5.1,2.364v1.556a1.773,1.773,0,1,1-3.545,0V36.3a17.945,17.945,0,0,1-4.194-.777,13.953,13.953,0,0,1-2.2-.89,1.364,1.364,0,0,1-.606-1.748l.027-.063.96-2.228a1,1,0,0,1,1.333-.529c.023.01.046.022.067.034.051.029.1.054.144.078a13.222,13.222,0,0,0,2.135.877,11.882,11.882,0,0,0,3.6.58q3.368,0,3.368-1.739a1.438,1.438,0,0,0-.96-1.358,17.262,17.262,0,0,0-3.087-.93,28.85,28.85,0,0,1-3.9-1.114,6.565,6.565,0,0,1-2.688-1.907,5.263,5.263,0,0,1-1.122-3.539,6.213,6.213,0,0,1,1.831-4.5,8.61,8.61,0,0,1,5.287-2.3V12.722a1.773,1.773,0,1,1,3.545,0v1.464a16.788,16.788,0,0,1,3.234.61,12.448,12.448,0,0,1,2.018.782l.175.09a.736.736,0,0,1,.327.922l-1.341,3.337a.519.519,0,0,1-.685.293l-.035-.016c-.1-.052-.182-.094-.251-.128a11.274,11.274,0,0,0-4.978-1.253,4.681,4.681,0,0,0-2.541.534,1.611,1.611,0,0,0-.8,1.388,1.371,1.371,0,0,0,.946,1.281,16.615,16.615,0,0,0,3.042.885,27.786,27.786,0,0,1,3.914,1.114,6.756,6.756,0,0,1,2.688,1.892,5.154,5.154,0,0,1,1.137,3.524Zm-43.8,39.883a1.143,1.143,0,1,0,0,2.286h22.095a1.143,1.143,0,1,0,0-2.286Zm0,5.333a1.143,1.143,0,1,0,0,2.286h22.095a1.143,1.143,0,1,0,0-2.286Z"/>
  </g>
</svg>
