<svg xmlns="http://www.w3.org/2000/svg" width="119.103" height="88.406" viewBox="0 0 119.103 88.406">
  <g id="Group_97" data-name="Group 97" transform="translate(-420.153 -4323.336)">
    <g id="noun-foods-4906437" transform="translate(463.178 4347.511)">
      <path id="Path_151" data-name="Path 151" d="M1.549,99H.516a.516.516,0,0,0,0,1.033H1.549a.516.516,0,0,0,0-1.033Z" transform="translate(0 -79.891)"/>
      <path id="Path_152" data-name="Path 152" d="M121.549,99h-1.033a.516.516,0,0,0,0,1.033h1.033a.516.516,0,0,0,0-1.033Z" transform="translate(-89.012 -79.891)"/>
      <path id="Path_153" data-name="Path 153" d="M81.927,33.205a3.816,3.816,0,0,0,2.584.927.556.556,0,0,0,.618-.49,3.918,3.918,0,0,0-.924-2.715A3.921,3.921,0,0,0,81.49,30a.517.517,0,0,0-.487.487A3.918,3.918,0,0,0,81.927,33.205Zm1.547-1.547a2.444,2.444,0,0,1,.6,1.413,2.445,2.445,0,0,1-1.413-.6h0a2.443,2.443,0,0,1-.6-1.413A2.443,2.443,0,0,1,83.474,31.658Z" transform="translate(-60.083 -28.71)"/>
      <path id="Path_154" data-name="Path 154" d="M50.017,27.93c0,.112-.02.144-.124.276a1.347,1.347,0,0,0-.345.935.517.517,0,0,0,.516.506.53.53,0,0,0,.517-.527c0-.112.02-.144.124-.276a1.369,1.369,0,0,0-.036-1.857c-.109-.128-.133-.16-.135-.272s.02-.144.124-.276A1.345,1.345,0,0,0,51,25.507a.516.516,0,1,0-1.033.02c0,.112-.02.144-.124.276a1.368,1.368,0,0,0,.036,1.856C49.991,27.787,50.014,27.818,50.017,27.93Z" transform="translate(-36.718 -25)"/>
      <path id="Path_155" data-name="Path 155" d="M60.017,27.93a.42.42,0,0,1-.124.276,1.347,1.347,0,0,0-.345.935.517.517,0,0,0,.516.506.532.532,0,0,0,.506-.414c.015-.072.006-.149.025-.22a.508.508,0,0,1,.109-.169,1.369,1.369,0,0,0-.036-1.857.442.442,0,0,1-.135-.3.421.421,0,0,1,.124-.252A1.345,1.345,0,0,0,61,25.507a.516.516,0,0,0-1.033.02c0,.112-.02.144-.124.276a1.368,1.368,0,0,0,.036,1.856A.473.473,0,0,1,60.017,27.93Z" transform="translate(-44.136 -25)"/>
      <path id="Path_156" data-name="Path 156" d="M6.894,37.764,6.214,30.1H12.56l-.337,3.8a6.914,6.914,0,0,1,1.041-.049l.509-5.736A1.023,1.023,0,0,0,12.818,27H5.956A1.019,1.019,0,0,0,5,28.119L6,39.368a1.541,1.541,0,0,1,.421-.181,6.478,6.478,0,0,1,.474-1.423Zm5.849-9.731-.092,1.033H6.123l-.092-1.033Z" transform="translate(-3.706 -26.484)"/>
      <path id="Path_157" data-name="Path 157" d="M90.673,40.334A1.894,1.894,0,0,1,91,38.91a.516.516,0,0,0-.669-.787,2.726,2.726,0,0,0-.687,2.241,4.4,4.4,0,0,0-3.273,2.389,5.706,5.706,0,0,1,.838.638,3.356,3.356,0,0,1,6.276,2.362,5.606,5.606,0,0,1,.627,1.118,4.38,4.38,0,0,0-3.433-6.537Z" transform="translate(-64.064 -34.643)"/>
      <path id="Path_158" data-name="Path 158" d="M54.315,55.771a2.073,2.073,0,0,0-2.09.105.514.514,0,0,0-.128.712.528.528,0,0,0,.715.138,1.031,1.031,0,0,1,1.013-.046.516.516,0,1,0,.49-.909Z" transform="translate(-38.576 -47.652)"/>
      <path id="Path_159" data-name="Path 159" d="M52.315,66.771a2.074,2.074,0,0,0-2.09.105.514.514,0,0,0-.128.712.525.525,0,0,0,.715.138,1.031,1.031,0,0,1,1.013-.046.516.516,0,1,0,.49-.909Z" transform="translate(-37.093 -55.812)"/>
      <path id="Path_160" data-name="Path 160" d="M28.068,66.5h-.011a2.366,2.366,0,0,0-1.98,1.021.516.516,0,0,0,.169.71.522.522,0,0,0,.711-.169,1.335,1.335,0,0,1,1.1-.529h.009a.516.516,0,1,0,0-1.033Z" transform="translate(-19.286 -55.783)"/>
      <path id="Path_161" data-name="Path 161" d="M95.385,70.331a.511.511,0,0,0-.348.628.521.521,0,0,0,.628.366.5.5,0,0,1,.5.174.525.525,0,0,0,.728.063.516.516,0,0,0,.063-.728A1.533,1.533,0,0,0,95.385,70.331Z" transform="translate(-70.481 -58.587)"/>
      <path id="Path_162" data-name="Path 162" d="M73.4,66.216a.516.516,0,0,0,.226,1.008.541.541,0,0,1,.51.212.525.525,0,0,0,.724.1.516.516,0,0,0,.1-.724A1.573,1.573,0,0,0,73.4,66.216Z" transform="translate(-54.149 -55.551)"/>
      <path id="Path_163" data-name="Path 163" d="M37.372,55.005H36.8a4.687,4.687,0,0,0-4.662-3.933,4.755,4.755,0,0,0-1.743.327,4.718,4.718,0,0,0-3.424-1.8,5.434,5.434,0,0,0-9.374.174,5.817,5.817,0,0,0-.817-.058,5.693,5.693,0,0,0-5.735,5.291h-.526a.516.516,0,0,0-.516.516v1.033A1.551,1.551,0,0,0,11.549,58.1h.122l1.4,2.324H11.033a.516.516,0,0,0,0,1.033H36.856a.516.516,0,1,0,0-1.033H34.818l1.4-2.324h.122a1.551,1.551,0,0,0,1.549-1.549V55.522a.516.516,0,0,0-.516-.516ZM16.778,50.747a4.892,4.892,0,0,1,1,.106.516.516,0,0,0,.577-.293,4.394,4.394,0,0,1,7.847-.216.516.516,0,0,0,.456.277,3.693,3.693,0,0,1,3.122,1.7.517.517,0,0,0,.667.184,3.736,3.736,0,0,1,1.688-.4,3.658,3.658,0,0,1,3.613,2.9H12.082A4.658,4.658,0,0,1,16.778,50.747Zm16.985,9.431a.519.519,0,0,1-.442.25H14.569a.519.519,0,0,1-.442-.25L12.877,58.1H35.012Zm3.094-3.624a.517.517,0,0,1-.516.516H11.549a.517.517,0,0,1-.516-.516v-.516H36.856Z" transform="translate(-7.418 -41.319)"/>
    </g>
    <g id="bar-1784947" transform="translate(420.153 4323.336)">
      <path id="Path_164" data-name="Path 164" d="M267.378,96.822v4.514H266a1.128,1.128,0,0,0,0,2.257h4.891a1.128,1.128,0,1,0,0-2.257H269.51V96.822l5.894-7.148a.953.953,0,0,0,.125-1.128,1.117,1.117,0,0,0-1-.627H262.237a1.28,1.28,0,0,0-1,.627,1.18,1.18,0,0,0,.125,1.128Z" transform="translate(-221.644 -86.789)"/>
      <path id="Path_165" data-name="Path 165" d="M114.53,197.157V180.479c2.257,2.007,5.142,3.887,8.9,3.636,6.27-.376,10.408-7.774,11.16-9.154a3.509,3.509,0,0,0,0-3.511h5.643a2.007,2.007,0,1,0,0-4.013H122.681a2.007,2.007,0,1,0,0,4.013h5.141c-1.254,2.257-3.636,5.016-4.891,5.142-1.881.125-4.138-2.383-5.518-4.013-1.63-1.756-3.01-3.386-5.267-3.386h-.627l-1.756,5.643a8.545,8.545,0,0,1-2.759,3.887,1.352,1.352,0,0,1-1.379,0,6.8,6.8,0,0,1-2.759-3.887l-1.756-5.643h-.627c-2.257,0-5.015,0-15.424,23.951a3.759,3.759,0,0,0,2.007,5.016,3.334,3.334,0,0,0,1.5.376,3.86,3.86,0,0,0,3.511-2.257c1.881-4.263,4.138-9.029,6.019-12.791v13.919l-4.639,34.485a4.381,4.381,0,0,0,3.762,4.891h.5a4.453,4.453,0,0,0,4.389-3.887l4.013-31.726,4.137,31.851a4.361,4.361,0,0,0,4.389,3.887h.5a4.294,4.294,0,0,0,3.762-4.891Z" transform="translate(-84.721 -148.502)"/>
      <path id="Path_166" data-name="Path 166" d="M158.307,92.032a9.154,9.154,0,1,1-9.155-9.155,9.155,9.155,0,0,1,9.155,9.155" transform="translate(-127.62 -82.877)"/>
      <path id="Path_167" data-name="Path 167" d="M178.716,186.8a.878.878,0,0,1-1.756,0,.878.878,0,1,1,1.756,0" transform="translate(-156.305 -162.846)"/>
      <path id="Path_168" data-name="Path 168" d="M171.043,171.347V169.34a.6.6,0,0,0-.878-.5l-2.132,1a.757.757,0,0,0-.752-.376.893.893,0,0,0-.752.376l-2.132-1a.6.6,0,0,0-.878.5v2.007a.6.6,0,0,0,.878.5l2.132-1a.757.757,0,0,0,.752.376.893.893,0,0,0,.752-.376l2.132,1A.563.563,0,0,0,171.043,171.347Z" transform="translate(-145.874 -149.527)"/>
      <path id="Path_169" data-name="Path 169" d="M178.716,200.8a.878.878,0,1,1-1.756,0,.878.878,0,1,1,1.756,0" transform="translate(-156.305 -173.711)"/>
      <path id="Path_170" data-name="Path 170" d="M504.692,234.507a2.71,2.71,0,0,0-3.135,2.257l-3.636,23.324a6.335,6.335,0,0,1-6.27,5.392H479.488a2.784,2.784,0,0,0-2.759,2.759A2.82,2.82,0,0,0,479.112,271l-3.386,14.42a2.867,2.867,0,0,0,2.007,3.386c.251,0,.376.125.627.125a2.936,2.936,0,0,0,2.759-2.132l3.636-15.55h6.9c.627,0,1.254-.125,1.881-.125l3.762,15.675a2.722,2.722,0,0,0,2.759,2.132,1.134,1.134,0,0,0,.627-.125,2.765,2.765,0,0,0,2.007-3.386L498.8,268.739a11.568,11.568,0,0,0,4.765-7.774l3.636-23.324a3,3,0,0,0-2.509-3.134Z" transform="translate(-388.108 -200.523)"/>
      <path id="Path_171" data-name="Path 171" d="M513.1,117.669a9.029,9.029,0,1,1-9.029-9.029,9.029,9.029,0,0,1,9.029,9.029" transform="translate(-403.159 -102.871)"/>
      <path id="Path_172" data-name="Path 172" d="M433.739,236.153a4.282,4.282,0,0,0,4.138-3.511l3.386-22.07a8.4,8.4,0,0,0-1.881-6.646,8.226,8.226,0,0,0-6.27-2.884h-1.254a8,8,0,0,0-4.514,1.379l-6.9,4.514a11.9,11.9,0,0,1-6.771,2.007h-7.524a3.511,3.511,0,0,0,0,7.022h7.524a19.646,19.646,0,0,0,9.906-2.759l-1,14.672h-8.4a4.171,4.171,0,0,0-4.138,3.386l-4.765,26.459a3.913,3.913,0,0,0,3.135,4.89c.251,0,.5.125.752.125a4.17,4.17,0,0,0,4.138-3.386l4.138-23.073Z" transform="translate(-331.45 -174.582)"/>
      <path id="Path_173" data-name="Path 173" d="M269.969,320.361h-2.132v-32.6h20.44a2.759,2.759,0,1,0,0-5.517h-46.4a2.759,2.759,0,1,0,0,5.517h20.44v32.6h-2.133a2.759,2.759,0,1,0,0,5.518h9.656a2.784,2.784,0,0,0,2.759-2.759,2.677,2.677,0,0,0-2.634-2.759Z" transform="translate(-204.547 -237.598)"/>
    </g>
  </g>
</svg>
